<svg xmlns="http://www.w3.org/2000/svg" xmlns:xlink="http://www.w3.org/1999/xlink" width="317" height="331" version="1.1" viewBox="0 0 317 331"><title>metamask</title><desc>Created with Sketch.</desc><g id="Page-1" fill="none" fill-rule="evenodd" stroke="none" stroke-width="1"><g id="metamask" fill-rule="nonzero"><g id="Shape"><polygon fill="#BBB" stroke="#BBB" points="300 229 280.763 294 243 283.679"/><polygon fill="#BBB" stroke="#BBB" points="243 284 279.423 233.834 300 229"/><path fill="#DDD" d="M272,179.716489 L300,229.151839 L279.643454,234 L272,179.716489 Z M272,179.716489 L290.016713,167 L300,229.151839 L272,179.716489 Z"/><path fill="#000" stroke="#000" d="M249,142.560976 L301,121 L298.415663,132.810976 L249,142.560976 Z M296.771084,147 L249,142.560976 L298.415663,132.810976 L296.771084,147 Z"/><path fill="#000" stroke="#000" d="M296.851563,146.862549 L290.689098,167 L249,142.498282 L296.851563,146.862549 Z M306.893674,125.979381 L298,132.776632 L300.620458,121 L306.893674,125.979381 Z M296,147.147766 L297.667564,133 L304.734859,138.848797 L296,147.147766 Z"/><path fill="#000" stroke="#000" d="M290.501771,167 L296.750885,146.521729 L303,151.670968 L290.501771,167 Z M290.992432,167.10791 L235.792725,148.983398 L248.977783,141.554199 L290.992432,167.10791 Z"/><polygon fill="#000" stroke="#000" points="261.963 80.313 249 142.452 236 149"/><polygon fill="#000" stroke="#000" points="301 121.352 248.367 143.222 261.625 80.512"/><polygon fill="#000" stroke="#000" points="262 81.269 317 75 300.998 121.375"/><polygon fill="#DDD" points="290.682 166.885 271.896 180 235.298 148.681"/><polygon fill="#000" stroke="#000" points="313.883 31.113 317 75.166 261.748 81.559"/><polygon fill="#BBB" stroke="#BBB" points="314 31 204.526 111.583 203 56.74"/><polygon fill="#DDD" points="122 50 203.574 56.431 205.114 110.804"/><polygon fill="#000" stroke="#000" points="236.105 149 205 109.872 262 81"/><polygon fill="#BBB" stroke="#BBB" points="235.673 149 272.702 180.193 220.705 185.547"/><polygon fill="#BBB" stroke="#BBB" points="220.5 186.56 205 110 236 148.994"/><polygon fill="#000" stroke="#000" points="261.822 81.924 205 111 314 31"/><polygon fill="#C0AD9E" points="122.281 283.057 148 310 113 278"/><polygon fill="#999" stroke="#999" points="243 284 255.078 237.476 279.552 234.017"/><polygon fill="#E2761B" points="18 153 63 106 23.804 147.392"/><path fill="#DDD" d="M279.638916,234.052734 L254.892334,237.791992 L272.25025,180.452211 L279.638916,234.052734 Z M204.874875,110.555789 L161.302302,109.130947 L122,50 L204.874875,110.555789 Z"/><polygon fill="#AAA" stroke="#AAA" points="272.86 178.466 255.036 238.403 253.431 209.202"/><polygon fill="#999" stroke="#999" points="221 185.535 272 180 254.075 209"/><polygon fill="#DDD" points="161 109 205.041 109.762 221 186"/><path fill="#BBB" stroke="#BBB" d="M162.666504,110.812012 L43.8779297,0 L122.686523,49.7369804 L162.666504,110.812012 Z M122.605469,298.883789 L20.4082031,331 L0,252.227539 L122.605469,298.883789 Z"/><polygon fill="#000" stroke="#000" points="33 172 71.627 142 104 149.441"/><polygon fill="#000" stroke="#000" points="104 150 72 142.487 89.134 71"/><polygon fill="#000" stroke="#000" points="24 147.17 72 142 33.41 172"/><polygon fill="#999" stroke="#999" points="254 209 234.058 198.874 221 185"/><polygon fill="#000" stroke="#000" points="24.025 147.559 19.736 127.63 72.623 142.035"/><polygon fill="#000" points="229.505 222.028 233.891 198.619 254.019 208.943"/><polygon fill="#DDD" points="255 237 230 221.541 253.676 209"/><path fill="#000" stroke="#000" d="M72.0783081,142.372253 L20.1834513,129.755756 L16,114.651652 L72.0783081,142.372253 Z M89.4462891,70.630127 L72.0721436,142.393555 L16,114.651652 L89.4462891,70.630127 Z M89,71 L161,109.037037 L103.773544,150 L89,71 Z"/><path fill="#BBB" stroke="#BBB" d="M102.939453,149.790527 L161.446777,108.118652 L187,187 L102.939453,149.790527 Z M187,187 L107.214355,184.98877 L103.306152,149.833008 L187,187 Z"/><path fill="#DDD" d="M32.0712891,171.77832 L103.916504,149.303223 L107.426532,185.340426 L32.0712891,171.77832 Z M221,185.81459 L186.509656,187 L161.016793,109 L221,185.81459 Z"/><polygon fill="#999" stroke="#999" points="234 198.617 229.903 221 221 185"/><polygon fill="#000" stroke="#000" points="44 0 161 109 88.698 71.201"/><polygon fill="#BBB" stroke="#BBB" points="0 252.468 98.903 247.688 122.922 299.432"/><polygon fill="#999" stroke="#999" points="122.545 299 99 248.384 148 246"/><path fill="#BBB" stroke="#BBB" d="M230.672711,221.514124 L256.022229,237.016949 L265.330322,267.536621 L230.672711,221.514124 Z M108.110559,184.655367 L0,252.59887 L33.6414156,172 L108.110559,184.655367 Z M99.0289558,248.485876 L0,252.59887 L108.110559,184.655367 L99.0289558,248.485876 Z M221.749049,185.129944 L228.329102,209.351562 L196.20166,211.189697 L221.749049,185.129944 Z M196.142822,211.310303 L187.238959,186.316384 L221.749049,185.129944 L196.142822,211.310303 Z"/><polygon fill="#FBFBFB" points="148.454 309.721 122 299 214 315"/><polygon fill="#000" stroke="#000" points="33.541 171.776 18 152.599 24.122 146.519"/><polygon fill="#FFF" points="225.334 302.742 214.449 315.717 122 299"/><polygon fill="#BBB" stroke="#BBB" points="230.498 275.182 122 299 147.263 246"/><polygon fill="#FFF" points="122 299.011 224.426 276.239 230 275 225.026 303"/><path fill="#000" stroke="#000" d="M16.5367115,114.898062 L13.1118164,53.6879883 L89.7861328,70.8154297 L16.5367115,114.898062 Z M24.1728516,147.156738 L13.6287487,137.309183 L20.7021717,130.023589 L24.1728516,147.156738 Z"/><polygon fill="#999" stroke="#999" points="169 202.545 186.879 185.944 184.429 225"/><polygon fill="#999" stroke="#999" points="186 187 169.393 203.095 143 216"/><path fill="#BBB" stroke="#BBB" d="M264.222892,266.476346 L230,222 L264.222892,266.476346 Z"/><polygon fill="#999" stroke="#999" points="143.637 216 108 185 187 186.678"/><polygon fill="#AAA" stroke="#AAA" points="184 225 186.96 185.626 196.303 211.11"/><polygon fill="#000" stroke="#000" points="10 119.969 16.649 114 21 129"/><polygon fill="#000" points="185.065 225.884 142.478 216.036 168.803 202"/><polygon fill="#000" stroke="#000" points="89 71 13 53.785 44.044 0"/><polygon fill="#FBFBFB" points="214.662 314.608 219.323 326.848 148.15 309.338"/><polygon fill="#DDD" points="146.878 247 143 216 184 225.324"/><polygon fill="#AAA" stroke="#AAA" points="108 185 144.088 215.461 147.287 246.429"/><path fill="#DDD" d="M196.127808,211.066406 L228.076046,209.108317 L265,267 L196.127808,211.066406 Z M108.073194,185 L147.60076,246.618956 L98.7451172,248.597656 L108.073194,185 Z"/><polygon fill="#AAA" stroke="#AAA" points="196.218 211 235 270 183.407 225.094"/><polygon fill="#BBB" stroke="#BBB" points="183.709 224.863 235.487 270.006 228.958 275.549"/><path fill="#DDD" d="M229.403226,275 L147,246.555556 L183.877016,225.064198 L229.403226,275 Z M265.065247,267.038452 L235.010742,270.378784 L195.155273,209.339355 L265.065247,267.038452 Z"/><path fill="#FBFBFB" d="M272.00824,294.410675 L259.356948,320.362963 L218.346049,327 L272.00824,294.410675 Z M219.55719,327.282715 L214,315.148148 L225.11438,302.943848 L219.55719,327.282715 Z"/><path fill="#FBFBFB" d="M225.051514,302.968872 L232.809204,299.898437 L219,327 L225.051514,302.968872 Z M219,327 L232.710693,299.850464 L272.031677,294.415588 L219,327 Z"/><polygon fill="#000" points="265.134 267 274.983 272.75 245 276"/><path fill="#000" d="M244.534709,276.545455 L235,270.340909 L265.137085,267.049438 L244.534709,276.545455 Z M241.146341,281.238636 L277,276.863636 L272.036133,294.474121 L241.146341,281.238636 Z"/><path fill="#000" d="M272.066265,294.415274 L232.674699,299.928401 L241.36747,280.789976 L272.066265,294.415274 Z M232.858643,299.856323 L225,303 L229.64389,274.996735 L232.858643,299.856323 Z M229.646622,274.991623 L235.259036,270 L244.73494,276.143198 L229.646622,274.991623 Z M274.82019,272.612183 L277.009399,276.895203 L240.491821,281.35498 L274.82019,272.612183 Z"/><path fill="#000" d="M241.280029,281.16687 L244.26709,275.812866 L274.876221,272.649902 L241.280029,281.16687 Z M229.641754,274.986938 L241.410302,281.092219 L232.735346,300 L229.641754,274.986938 Z"/><polygon fill="#000" points="244.553 276.002 241.347 281.347 229.653 274.996"/></g></g></g></svg>