<svg xmlns="http://www.w3.org/2000/svg" xmlns:xlink="http://www.w3.org/1999/xlink" width="81" height="120" version="1.1" viewBox="0 0 81 120"><title>Artboard</title><desc>Created with Sketch.</desc><defs><linearGradient id="linearGradient-1" x1="100.1%" x2="44.158%" y1="-16.123%" y2="77.651%"><stop offset="13.45%" stop-color="#2B415B"/><stop offset="37.62%" stop-color="#3B5676"/><stop offset="69.23%" stop-color="#54769E"/><stop offset="79.01%" stop-color="#52749B"/><stop offset="86.14%" stop-color="#4D6C92"/><stop offset="92.44%" stop-color="#436082"/><stop offset="98.22%" stop-color="#364F6C"/><stop offset="100%" stop-color="#314863"/></linearGradient><linearGradient id="linearGradient-2" x1="99.789%" x2="-4.607%" y1="61.494%" y2="13.346%"><stop offset="0%" stop-color="#54769E"/><stop offset="48.02%" stop-color="#53749C"/><stop offset="68.78%" stop-color="#4F6F95"/><stop offset="84.23%" stop-color="#486588"/><stop offset="90.95%" stop-color="#435F80"/></linearGradient><linearGradient id="linearGradient-3" x1="725.857%" x2="-347.124%" y1="50.023%" y2="50.023%"><stop offset="25.39%" stop-color="#20344C"/><stop offset="40.72%" stop-color="#273D57"/><stop offset="67.33%" stop-color="#395373"/><stop offset="100%" stop-color="#54769E"/></linearGradient><linearGradient id="linearGradient-4" x1="-653.788%" x2="455.494%" y1="50.021%" y2="50.021%"><stop offset="25.39%" stop-color="#54769E"/><stop offset="41.33%" stop-color="#4D6E93"/><stop offset="68.97%" stop-color="#3C5777"/><stop offset="100%" stop-color="#233850"/></linearGradient><linearGradient id="linearGradient-5" x1="50.037%" x2="49.958%" y1="-209.336%" y2="235.965%"><stop offset=".655%" stop-color="#54769E"/><stop offset="19.93%" stop-color="#507198"/><stop offset="45.02%" stop-color="#466488"/><stop offset="73.18%" stop-color="#354F6D"/><stop offset="100%" stop-color="#21354D"/></linearGradient><linearGradient id="linearGradient-6" x1="163.86%" x2="-53.14%" y1="-95.577%" y2="173.049%"><stop offset="25.39%" stop-color="#54769E"/><stop offset="41.02%" stop-color="#4D6E93"/><stop offset="68.13%" stop-color="#3C5777"/><stop offset="100%" stop-color="#22364E"/></linearGradient><linearGradient id="linearGradient-7" x1="-44.112%" x2="137.688%" y1="-60.146%" y2="146.957%"><stop offset="25.39%" stop-color="#54769E"/><stop offset="41.02%" stop-color="#4D6E93"/><stop offset="68.13%" stop-color="#3C5777"/><stop offset="100%" stop-color="#22364E"/></linearGradient><linearGradient id="linearGradient-8" x1="-1.436%" x2="127.702%" y1="31.601%" y2="103.798%"><stop offset="26.64%" stop-color="#54769E"/><stop offset="100%" stop-color="#425E7F"/></linearGradient><linearGradient id="linearGradient-9" x1="-71.276%" x2="149.175%" y1="-65.314%" y2="96.331%"><stop offset="46.09%" stop-color="#54769E" stop-opacity="0"/><stop offset="56.99%" stop-color="#52739A" stop-opacity=".216"/><stop offset="67.64%" stop-color="#4A698E" stop-opacity=".427"/><stop offset="78.2%" stop-color="#3D597B" stop-opacity=".636"/><stop offset="88.63%" stop-color="#2C435F" stop-opacity=".842"/><stop offset="96.61%" stop-color="#1B2E45"/></linearGradient><linearGradient id="linearGradient-10" x1="50.309%" x2="50.309%" y1="295.997%" y2="-124.649%"><stop offset="25.39%" stop-color="#54769E"/><stop offset="41.02%" stop-color="#4D6E93"/><stop offset="68.13%" stop-color="#3C5777"/><stop offset="100%" stop-color="#22364E"/></linearGradient></defs><g id="Page-1" fill="none" fill-rule="evenodd" stroke="none" stroke-width="1"><g id="Artboard" fill-rule="nonzero"><g id="logo-shapeshift"><polygon id="Shape" fill="#273C51" points="75.905 29.011 81 .035 59.705 8.889 36.301 8.889 15.005 0 20.136 29.011 15.321 45.179 19.855 48.014 0 65.372 0 81.68 22.701 112.826 44.102 119.965 44.137 120 60.864 111.461 60.899 111.426 60.899 98.793 51.411 93.613 51.411 93.613 51.411 93.613 66.311 54.103 66.206 54.103 80.684 45.179"/><g id="Group"><polygon id="Shape" fill="url(#linearGradient-1)" points="34.258 35.337 0 65.233 47.723 92.547 47.899 36.244"/><polygon id="Shape" fill="#466284" points="29.384 53.826 47.758 102.698 47.899 56.547"/><polygon id="Shape" fill="#354D6A" points="66.168 54 47.758 102.698 47.899 56.547"/><polygon id="Shape" fill="url(#linearGradient-2)" points="80.825 .105 62.556 9.663 47.934 12.837 33.171 9.663 14.973 .07 21.249 28.919 15.288 45.105 36.187 58.012 47.794 70.57 47.794 70.674 47.864 70.605 47.934 70.674 47.934 70.57 59.54 58.012 80.509 45.105 74.548 28.953"/><polygon id="Shape" fill="url(#linearGradient-3)" points="80.825 .105 75.74 28.988 80.509 45.105 74.548 28.953"/><polygon id="Shape" fill="url(#linearGradient-4)" points="14.973 .07 20.092 28.988 15.288 45.105 21.249 28.919"/><polygon id="Shape" fill="url(#linearGradient-5)" points="14.973 .07 36.222 8.93 59.575 8.93 80.825 .105 62.556 9.663 47.934 12.837 33.171 9.663"/><polygon id="Shape" fill="url(#linearGradient-6)" points="21.249 28.919 20.197 31.814 42.253 11.581"/><polygon id="Shape" fill="url(#linearGradient-7)" points="74.548 28.953 53.649 11.581 75.565 31.674"/><polygon id="Shape" fill="url(#linearGradient-8)" points="0 65.233 51.3 93.384 57.787 109.535 44.042 114.733 22.652 112.535 0 81.488"/><polygon id="Shape" fill="#FFF" points="42.464 88.535 22.722 112.465 22.652 112.535 44.006 119.651 44.042 119.686 60.732 111.174 60.768 111.14 60.768 98.547"/><polygon id="Shape" fill="url(#linearGradient-9)" points="74.548 28.953 80.825 .105 62.556 9.663 53.649 11.581"/><polygon id="Shape" fill="#FFF" points="47.899 70.674 42.113 64.36 47.899 58.012 53.719 64.36"/><polygon id="Shape" fill="url(#linearGradient-10)" points="47.338 12.698 47.934 12.837 48.46 12.733 47.899 49.535"/></g></g></g></g></svg>