<svg xmlns="http://www.w3.org/2000/svg" xmlns:xlink="http://www.w3.org/1999/xlink" width="620" height="620" version="1.1" viewBox="0 0 620 620"><title>swap</title><desc>Created with Sketch.</desc><defs><circle id="path-1" cx="170" cy="170" r="170"/><circle id="path-3" cx="170" cy="170" r="170"/></defs><g id="Page-1" fill="none" fill-rule="evenodd" stroke="none" stroke-width="1"><g id="swap"><g id="Yellow-Coin" transform="translate(0.000000, 280.000000)"><mask id="mask-2" fill="#fff"><use xlink:href="#path-1"/></mask><circle cx="170" cy="170" r="160" stroke="#007896" stroke-width="20"/><rect id="Rectangle" width="173.4" height="340" x="-1.133" y="1.133" fill="#FFE14D" mask="url(#mask-2)"/><rect id="Rectangle" width="173.4" height="340" x="171.133" y="1.133" fill="#FC3" mask="url(#mask-2)"/><circle id="Oval-2" cx="170" cy="170" r="160" stroke="#333" stroke-width="20" mask="url(#mask-2)"/><circle id="Oval-3" cx="170" cy="170" r="96.333" stroke="#F28618" stroke-width="20" mask="url(#mask-2)"/></g><g id="Blue-Coin" transform="translate(280.000000, 0.000000)"><mask id="mask-4" fill="#fff"><use xlink:href="#path-3"/></mask><circle cx="170" cy="170" r="160" stroke="#007896" stroke-width="20"/><rect id="Rectangle" width="173.4" height="340" x="-1.133" y="1.133" fill="#6EA6E8" mask="url(#mask-4)"/><rect id="Rectangle" width="173.4" height="340" x="171.133" y="1.133" fill="#5C9BE4" mask="url(#mask-4)"/><circle id="Oval-2" cx="170" cy="170" r="160" stroke="#333" stroke-width="20" mask="url(#mask-4)"/><circle id="Oval-3" cx="170" cy="170" r="96.333" stroke="#2F79CF" stroke-width="20" mask="url(#mask-4)"/></g><g id="Group" fill-rule="nonzero" transform="translate(226.000000, 320.000000)"><polygon id="Shape" fill="#0492BE" points="311.67 8 385.42 8 385.42 171.31 144.71 171.31 144.71 234.53 13 134.44 144.71 34.34 144.71 97.56 311.67 97.56"/><polygon id="Shape" fill="#103957" points="348.54 134.44 13 134.44 144.71 234.53 144.71 171.31 385.42 171.31 385.42 8 348.54 8" opacity=".2"/><path id="Shape" fill="#000" d="M152.66,250.36 L0,134.36 L152.66,18.36 L152.66,89.61 L303.82,89.61 L303.82,0 L393.38,0 L393.38,179.11 L152.66,179.11 L152.66,250.36 Z M26.11,134.36 L136.85,218.52 L136.85,163.31 L377.58,163.31 L377.58,15.8 L319.63,15.8 L319.63,105.36 L136.86,105.36 L136.86,50.17 L26.11,134.36 Z"/></g><g id="Group" fill-rule="nonzero" transform="translate(197.000000, 174.500000) rotate(180.000000) translate(-197.000000, -174.500000) translate(0.000000, 49.000000)"><polygon id="Shape" fill="#0492BE" points="311.67 8 385.42 8 385.42 171.31 144.71 171.31 144.71 234.53 13 134.44 144.71 34.34 144.71 97.56 311.67 97.56"/><polygon id="Shape" fill="#103957" points="348.54 134.44 13 134.44 144.71 234.53 144.71 171.31 385.42 171.31 385.42 8 348.54 8" opacity=".2"/><path id="Shape" fill="#000" d="M152.66,250.36 L0,134.36 L152.66,18.36 L152.66,89.61 L303.82,89.61 L303.82,0 L393.38,0 L393.38,179.11 L152.66,179.11 L152.66,250.36 Z M26.11,134.36 L136.85,218.52 L136.85,163.31 L377.58,163.31 L377.58,15.8 L319.63,15.8 L319.63,105.36 L136.86,105.36 L136.86,50.17 L26.11,134.36 Z"/></g></g></g></svg>